<?xml version="1.0" standalone="no"?>
<!DOCTYPE svg PUBLIC "-//W3C//DTD SVG 20010904//EN"
 "http://www.w3.org/TR/2001/REC-SVG-20010904/DTD/svg10.dtd">
<svg version="1.0" xmlns="http://www.w3.org/2000/svg"
 width="200.000000pt" height="200.000000pt" viewBox="0 0 200.000000 200.000000"
 preserveAspectRatio="xMidYMid meet">
<metadata>
Created by potrace 1.11, written by Peter Selinger 2001-2013
</metadata>
<g transform="translate(0.000000,200.000000) scale(0.100000,-0.100000)"
fill="#000000" stroke="none">
<path d="M958 1784 c-16 -8 -28 -16 -28 -17 0 -1 -4 -17 -9 -34 -8 -27 -5 -38
15 -69 24 -35 24 -39 22 -212 l-3 -176 -265 -1 c-245 0 -268 -2 -295 -19 -42
-27 -73 -65 -80 -98 -5 -20 -18 -33 -48 -46 -52 -23 -103 -79 -116 -129 -6
-21 -11 -132 -11 -246 0 -188 2 -213 20 -255 21 -48 85 -106 124 -114 13 -2
21 -12 21 -28 5 -80 55 -152 117 -168 17 -4 283 -8 592 -7 l561 0 37 23 c56
35 83 86 87 169 1 6 14 14 31 18 36 8 100 73 117 118 7 21 12 110 12 252 0
194 -2 225 -18 260 -23 49 -64 89 -113 110 -22 9 -38 22 -38 31 0 29 -40 82
-78 106 -36 22 -44 23 -302 23 l-265 1 -3 176 c-2 173 -2 177 22 212 20 30 23
42 15 68 -5 18 -15 38 -22 46 -21 20 -69 23 -99 6z m607 -597 c48 -16 49 -25
50 -462 1 -226 -3 -419 -8 -431 -22 -52 -20 -52 -602 -52 -335 0 -550 3 -566
9 -52 20 -53 27 -53 474 0 396 1 415 20 436 10 12 27 24 37 28 24 9 1096 7
1122 -2z"/>
<path d="M579 1032 c-188 -98 -138 -382 72 -416 84 -13 192 42 230 116 101
197 -106 402 -302 300z m188 -81 c27 -19 43 -41 51 -68 16 -53 15 -60 -9 -109
-36 -76 -129 -101 -203 -54 -40 24 -55 50 -62 103 -15 121 122 201 223 128z"/>
<path d="M633 912 c-49 -38 -51 -106 -6 -142 92 -72 198 53 112 133 -34 31
-73 35 -106 9z"/>
<path d="M1225 1041 c-89 -40 -145 -141 -130 -237 9 -63 60 -133 119 -163 159
-82 344 46 323 224 -16 144 -180 237 -312 176z m154 -79 c134 -68 85 -267 -65
-264 -58 0 -100 28 -125 80 -60 123 67 247 190 184z"/>
<path d="M1279 919 c-27 -10 -48 -39 -53 -74 -4 -26 19 -72 43 -85 50 -26 126
6 136 58 6 36 -15 81 -46 97 -32 17 -43 17 -80 4z"/>
<path d="M838 523 c-2 -5 -3 -21 -3 -38 l0 -30 162 -3 c176 -3 175 -3 165 56
-4 22 -6 22 -163 22 -87 0 -159 -3 -161 -7z"/>
</g>
</svg>
