<?xml version="1.0" standalone="no"?>
<!DOCTYPE svg PUBLIC "-//W3C//DTD SVG 20010904//EN"
 "http://www.w3.org/TR/2001/REC-SVG-20010904/DTD/svg10.dtd">
<svg version="1.0" xmlns="http://www.w3.org/2000/svg"
 width="501.000000pt" height="507.000000pt" viewBox="0 0 501.000000 507.000000"
 preserveAspectRatio="xMidYMid meet">

<g transform="translate(0.000000,507.000000) scale(0.100000,-0.100000)"
fill="#000000" stroke="none">
<path d="M1387 4693 c-4 -3 -7 -249 -7 -545 l0 -538 -540 0 -540 0 0 -275 0
-275 815 0 815 0 0 820 0 820 -268 0 c-148 0 -272 -3 -275 -7z"/>
<path d="M3020 3880 l0 -820 815 0 815 0 0 275 0 275 -540 0 -540 0 -2 543 -3
542 -272 3 -273 2 0 -820z"/>
<path d="M300 1705 l0 -275 540 0 540 0 0 -540 0 -540 275 0 275 0 0 815 0
815 -815 0 -815 0 0 -275z"/>
<path d="M3020 1165 l0 -815 275 0 275 0 0 540 0 540 540 0 540 0 0 275 0 275
-815 0 -815 0 0 -815z"/>
</g>
</svg>
