<?xml version="1.0" standalone="no"?>
<!DOCTYPE svg PUBLIC "-//W3C//DTD SVG 20010904//EN"
 "http://www.w3.org/TR/2001/REC-SVG-20010904/DTD/svg10.dtd">
<svg version="1.0" xmlns="http://www.w3.org/2000/svg"
 width="880.000000pt" height="920.000000pt" viewBox="0 0 880.000000 920.000000"
 preserveAspectRatio="xMidYMid meet">

<g transform="translate(0.000000,920.000000) scale(0.100000,-0.100000)"
fill="#000000" stroke="none">
<path d="M3987 7065 l-399 -1195 -96 -2 c-53 -2 -185 -3 -292 -3 -1046 0
-2160 -6 -2160 -12 0 -5 231 -174 512 -378 282 -203 611 -442 733 -531 121
-88 352 -256 513 -373 160 -117 292 -215 292 -218 0 -6 -200 -631 -462 -1443
-77 -239 -155 -482 -173 -540 -18 -58 -54 -170 -80 -250 -25 -80 -48 -151 -51
-158 -5 -18 -17 -26 311 208 160 114 448 319 640 456 193 138 522 373 732 522
l383 273 82 -59 c362 -257 836 -595 1356 -966 338 -240 617 -436 621 -434 4 2
-27 111 -70 243 -42 132 -190 593 -329 1025 -138 432 -276 859 -306 950 -30
91 -54 168 -54 172 0 3 120 94 268 201 566 411 1670 1212 1724 1251 32 22 58
44 58 49 0 4 -420 7 -932 8 -513 0 -1043 2 -1178 4 -135 2 -289 4 -342 5 l-96
0 -398 1195 c-218 657 -400 1195 -403 1195 -3 0 -185 -538 -404 -1195z"/>
<path d="M3955 8193 c-406 -54 -725 -149 -1080 -323 -606 -297 -1106 -751
-1449 -1319 -60 -98 -186 -343 -186 -361 0 -12 335 -14 593 -3 l167 6 27 46
c35 61 141 209 211 294 261 321 627 601 1012 773 138 61 335 131 448 159 l73
17 26 57 c20 44 223 643 223 658 0 3 -18 2 -65 -4z"/>
<path d="M4770 8189 c0 -24 149 -485 192 -593 l43 -110 125 -35 c478 -137 876
-369 1221 -711 170 -169 307 -341 424 -535 9 -14 51 -17 388 -22 279 -5 377
-3 377 5 0 21 -76 176 -140 288 -513 892 -1423 1530 -2415 1693 -194 32 -215
34 -215 20z"/>
<path d="M1000 5456 c0 -2 -9 -55 -19 -118 -31 -179 -42 -322 -41 -540 0 -230
10 -358 45 -563 99 -585 343 -1130 712 -1590 85 -106 353 -385 371 -385 9 0
169 477 206 618 l25 94 -70 86 c-170 208 -353 529 -444 775 -124 337 -178 648
-174 1007 l2 195 -144 104 c-421 306 -469 339 -469 317z"/>
<path d="M7544 5307 c-116 -84 -248 -179 -293 -212 l-83 -60 5 -104 c11 -191
-14 -478 -59 -691 -93 -439 -310 -889 -584 -1210 l-47 -55 17 -70 c24 -102
204 -645 213 -645 15 0 274 265 352 360 343 420 584 920 704 1465 46 208 63
363 68 632 6 278 -3 424 -37 624 -11 63 -20 115 -20 117 0 14 -57 -22 -236
-151z"/>
<path d="M3158 2143 c-203 -140 -457 -326 -458 -335 0 -12 181 -105 325 -166
410 -174 807 -259 1270 -269 458 -10 835 45 1232 181 217 75 541 223 549 252
2 5 -27 31 -64 59 -135 100 -349 253 -445 318 l-98 66 -44 -19 c-90 -39 -333
-111 -450 -135 -431 -87 -845 -80 -1254 20 -128 32 -290 83 -373 118 l-37 16
-153 -106z"/>
</g>
</svg>
